<svg xmlns="http://www.w3.org/2000/svg" width="1120" height="720" viewBox="0 0 1120 720" role="img" aria-labelledby="title desc">
  <title id="title">Craftless layered stack</title>
  <desc id="desc">An OSI-style layered stack diagram for Craftless, showing users, developer interfaces, runtime, generated protocol, client driver, and the real Minecraft Java client.</desc>
  <defs>
    <linearGradient id="bg" x1="0" x2="1" y1="0" y2="1">
      <stop offset="0%" stop-color="#f8fafc"/>
      <stop offset="100%" stop-color="#eef7f1"/>
    </linearGradient>
    <linearGradient id="layer-user" x1="0" x2="1" y1="0" y2="0">
      <stop offset="0%" stop-color="#2563eb"/>
      <stop offset="100%" stop-color="#0891b2"/>
    </linearGradient>
    <linearGradient id="layer-api" x1="0" x2="1" y1="0" y2="0">
      <stop offset="0%" stop-color="#0ea5e9"/>
      <stop offset="100%" stop-color="#0284c7"/>
    </linearGradient>
    <linearGradient id="layer-runtime" x1="0" x2="1" y1="0" y2="0">
      <stop offset="0%" stop-color="#16a34a"/>
      <stop offset="100%" stop-color="#0f766e"/>
    </linearGradient>
    <linearGradient id="layer-protocol" x1="0" x2="1" y1="0" y2="0">
      <stop offset="0%" stop-color="#7c3aed"/>
      <stop offset="100%" stop-color="#9333ea"/>
    </linearGradient>
    <linearGradient id="layer-driver" x1="0" x2="1" y1="0" y2="0">
      <stop offset="0%" stop-color="#d97706"/>
      <stop offset="100%" stop-color="#ca8a04"/>
    </linearGradient>
    <linearGradient id="layer-client" x1="0" x2="1" y1="0" y2="0">
      <stop offset="0%" stop-color="#475569"/>
      <stop offset="100%" stop-color="#1f2937"/>
    </linearGradient>
    <filter id="shadow" x="-5%" y="-10%" width="110%" height="130%">
      <feDropShadow dx="0" dy="10" stdDeviation="10" flood-color="#0f172a" flood-opacity="0.13"/>
    </filter>
    <marker id="arrow-down" viewBox="0 0 10 10" refX="5" refY="8" markerWidth="8" markerHeight="8" orient="auto">
      <path d="M 0 0 L 5 10 L 10 0 z" fill="#475569"/>
    </marker>
    <marker id="arrow-up" viewBox="0 0 10 10" refX="5" refY="2" markerWidth="8" markerHeight="8" orient="auto">
      <path d="M 0 10 L 5 0 L 10 10 z" fill="#94a3b8"/>
    </marker>
    <style>
      .root { fill: url(#bg); }
      .title { fill: #0f172a; font: 800 35px system-ui, -apple-system, BlinkMacSystemFont, "Segoe UI", sans-serif; }
      .subtitle { fill: #475569; font: 500 16px system-ui, -apple-system, BlinkMacSystemFont, "Segoe UI", sans-serif; }
      .stack { fill: #ffffff; stroke: #cbd5e1; stroke-width: 1.2; filter: url(#shadow); }
      .layer-label { fill: #ffffff; font: 800 18px system-ui, -apple-system, BlinkMacSystemFont, "Segoe UI", sans-serif; }
      .layer-note { fill: rgba(255,255,255,.88); font: 600 12px system-ui, -apple-system, BlinkMacSystemFont, "Segoe UI", sans-serif; letter-spacing: .02em; }
      .cell { fill: rgba(255,255,255,.94); stroke: rgba(255,255,255,.70); stroke-width: 1; }
      .cell-title { fill: #0f172a; font: 800 14px system-ui, -apple-system, BlinkMacSystemFont, "Segoe UI", sans-serif; }
      .cell-note { fill: #475569; font: 600 11px system-ui, -apple-system, BlinkMacSystemFont, "Segoe UI", sans-serif; }
      .side-title { fill: #334155; font: 800 13px system-ui, -apple-system, BlinkMacSystemFont, "Segoe UI", sans-serif; letter-spacing: .04em; }
      .side-note { fill: #64748b; font: 600 12px system-ui, -apple-system, BlinkMacSystemFont, "Segoe UI", sans-serif; }
      .down { stroke: #475569; stroke-width: 2; marker-end: url(#arrow-down); }
      .up { stroke: #94a3b8; stroke-width: 1.8; stroke-dasharray: 6 7; marker-end: url(#arrow-up); }
      .callout { fill: #ffffff; stroke: #cbd5e1; stroke-width: 1; }
      .callout-text { fill: #334155; font: 700 13px system-ui, -apple-system, BlinkMacSystemFont, "Segoe UI", sans-serif; }
    </style>
  </defs>

  <rect class="root" width="1120" height="720" rx="28"/>
  <text class="title" x="56" y="62">Craftless layered stack</text>
  <text class="subtitle" x="56" y="92">Minecraft is the runtime. Craftless adds the thin automation layers around it.</text>

  <rect class="stack" x="168" y="126" width="816" height="486" rx="24"/>

  <g transform="translate(196 154)">
    <rect width="760" height="62" rx="15" fill="url(#layer-user)"/>
    <text class="layer-label" x="24" y="28">Users and automation</text>
    <text class="layer-note" x="24" y="48">agents / tools / tests / CI / humans</text>
    <rect class="cell" x="464" y="13" width="124" height="36" rx="10"/>
    <text class="cell-title" x="487" y="36">headless</text>
    <rect class="cell" x="606" y="13" width="124" height="36" rx="10"/>
    <text class="cell-title" x="634" y="36">visible</text>
  </g>

  <g transform="translate(196 228)">
    <rect width="760" height="70" rx="15" fill="url(#layer-api)"/>
    <text class="layer-label" x="24" y="30">Developer interfaces</text>
    <text class="layer-note" x="24" y="52">how programs talk to Craftless</text>
    <rect class="cell" x="282" y="14" width="124" height="42" rx="10"/>
    <text class="cell-title" x="313" y="33">CLI</text>
    <text class="cell-note" x="303" y="49">mcw today</text>
    <rect class="cell" x="424" y="14" width="124" height="42" rx="10"/>
    <text class="cell-title" x="450" y="33">HTTP API</text>
    <text class="cell-note" x="449" y="49">OpenAPI</text>
    <rect class="cell" x="566" y="14" width="164" height="42" rx="10"/>
    <text class="cell-title" x="590" y="33">Generated clients</text>
    <text class="cell-note" x="604" y="49">roadmap, API-derived</text>
  </g>

  <g transform="translate(196 310)">
    <rect width="760" height="70" rx="15" fill="url(#layer-runtime)"/>
    <text class="layer-label" x="24" y="30">Craftless runtime</text>
    <text class="layer-note" x="24" y="52">local daemon, sessions, files, logs, profiles, Docker / CI image</text>
    <rect class="cell" x="510" y="14" width="102" height="42" rx="10"/>
    <text class="cell-title" x="534" y="33">Ktor</text>
    <text class="cell-note" x="528" y="49">server</text>
    <rect class="cell" x="628" y="14" width="102" height="42" rx="10"/>
    <text class="cell-title" x="648" y="33">mise</text>
    <text class="cell-note" x="650" y="49">pinned</text>
  </g>

  <g transform="translate(196 392)">
    <rect width="760" height="70" rx="15" fill="url(#layer-protocol)"/>
    <text class="layer-label" x="24" y="30">Craftless Client Protocol</text>
    <text class="layer-note" x="24" y="52">per-client OpenAPI, generated actions, events, schemas, fingerprints</text>
    <rect class="cell" x="536" y="14" width="194" height="42" rx="10"/>
    <text class="cell-title" x="560" y="33">source of truth</text>
    <text class="cell-note" x="560" y="49">live client action surface</text>
  </g>

  <g transform="translate(196 474)">
    <rect width="760" height="62" rx="15" fill="url(#layer-driver)"/>
    <text class="layer-label" x="24" y="28">Client driver</text>
    <text class="layer-note" x="24" y="48">Fabric mod as durable path; bridge remains evidence infrastructure</text>
    <rect class="cell" x="566" y="13" width="164" height="36" rx="10"/>
    <text class="cell-title" x="589" y="36">small in-client layer</text>
  </g>

  <g transform="translate(196 548)">
    <rect width="760" height="62" rx="15" fill="url(#layer-client)"/>
    <text class="layer-label" x="24" y="28">Real Minecraft Java client</text>
    <text class="layer-note" x="24" y="48">player, world, screen, inventory, server state, installed mods, loader and version</text>
  </g>

  <line class="down" x1="576" y1="216" x2="576" y2="228"/>
  <line class="down" x1="576" y1="298" x2="576" y2="310"/>
  <line class="down" x1="576" y1="380" x2="576" y2="392"/>
  <line class="down" x1="576" y1="462" x2="576" y2="474"/>
  <line class="down" x1="576" y1="536" x2="576" y2="548"/>

  <line class="up" x1="922" y1="548" x2="922" y2="536"/>
  <line class="up" x1="922" y1="474" x2="922" y2="462"/>
  <line class="up" x1="922" y1="392" x2="922" y2="380"/>
  <line class="up" x1="922" y1="310" x2="922" y2="298"/>
  <line class="up" x1="922" y1="228" x2="922" y2="216"/>

  <text class="side-title" x="52" y="328">COMMANDS</text>
  <text class="side-note" x="52" y="350">invoke actions</text>
  <text class="side-note" x="52" y="370">manage sessions</text>
  <text class="side-note" x="52" y="390">read state</text>

  <text class="side-title" x="1000" y="328">EVENTS</text>
  <text class="side-note" x="1000" y="350">state changes</text>
  <text class="side-note" x="1000" y="370">chat</text>
  <text class="side-note" x="1000" y="390">logs</text>

  <rect class="callout" x="206" y="636" width="708" height="42" rx="21"/>
  <text class="callout-text" x="310" y="662">Live per-client OpenAPI and actions are the source of truth.</text>
</svg>
